<svg width="20" height="21" viewBox="0 0 20 21" fill="none" xmlns="http://www.w3.org/2000/svg">
<g id="vertical_align_bottom">
<mask id="mask0_2490_3627" style="mask-type:alpha" maskUnits="userSpaceOnUse" x="0" y="0" width="20" height="21">
<rect id="Bounding box" y="0.5" width="20" height="20" fill="#D9D9D9"/>
</mask>
<g mask="url(#mask0_2490_3627)">
<path id="vertical_align_bottom_2" d="M4.75604 17.5C4.54368 17.5 4.36458 17.4285 4.21875 17.2856C4.07292 17.1427 4 16.9656 4 16.7544C4 16.5431 4.07181 16.3646 4.21542 16.2188C4.35917 16.0729 4.53722 16 4.74958 16H15.244C15.4563 16 15.6354 16.0715 15.7812 16.2144C15.9271 16.3573 16 16.5344 16 16.7456C16 16.9569 15.9282 17.1354 15.7846 17.2812C15.6408 17.4271 15.4628 17.5 15.2504 17.5H4.75604ZM9.99583 14.1875C9.89583 14.1875 9.80208 14.1701 9.71458 14.1354C9.62708 14.1007 9.54861 14.0486 9.47917 13.9792L6.51792 11.0179C6.36708 10.8671 6.29514 10.691 6.30208 10.4896C6.30903 10.2882 6.38889 10.1111 6.54167 9.95833C6.69444 9.80556 6.87153 9.72917 7.07292 9.72917C7.27431 9.72917 7.45139 9.80556 7.60417 9.95833L9.25 11.625V4.25C9.25 4.0375 9.32146 3.85937 9.46438 3.71562C9.60729 3.57187 9.78438 3.5 9.99563 3.5C10.2069 3.5 10.3854 3.57187 10.5312 3.71562C10.6771 3.85937 10.75 4.0375 10.75 4.25V11.625L12.4167 9.95833C12.5694 9.80556 12.7465 9.73264 12.9479 9.73958C13.1493 9.74653 13.3264 9.82639 13.4792 9.97917C13.6319 10.1319 13.7083 10.309 13.7083 10.5104C13.7083 10.7118 13.6329 10.8874 13.4821 11.0373L10.5208 13.9792C10.4458 14.0486 10.3646 14.1007 10.2771 14.1354C10.1896 14.1701 10.0958 14.1875 9.99583 14.1875Z" fill="#777F8B"/>
</g>
</g>
</svg>
