<svg width="30" height="30" viewBox="0 0 30 30" fill="none" xmlns="http://www.w3.org/2000/svg">
<mask id="mask0_2490_5362" style="mask-type:alpha" maskUnits="userSpaceOnUse" x="0" y="0" width="30" height="30">
<rect width="30" height="30" fill="#D9D9D9"/>
</mask>
<g mask="url(#mask0_2490_5362)">
<path d="M15 24.2885L9.50412 26.7643C8.66989 27.1387 7.87731 27.067 7.12638 26.5492C6.37546 26.0314 6 25.303 6 24.364V6.62697C6 5.89288 6.24231 5.27153 6.72692 4.76292C7.21154 4.25431 7.80358 4 8.50304 4H21.497C22.1964 4 22.7885 4.25431 23.2731 4.76292C23.7577 5.27153 24 5.89288 24 6.62697V24.364C24 25.303 23.6245 26.0314 22.8736 26.5492C22.1227 27.067 21.3301 27.1387 20.4959 26.7643L15 24.2885ZM15 21.874L21.3239 24.7328C21.466 24.7979 21.6014 24.784 21.7299 24.691C21.8587 24.5977 21.9231 24.4719 21.9231 24.3135V6.62697C21.9231 6.51508 21.8787 6.41263 21.7898 6.31962C21.7012 6.22638 21.6036 6.17976 21.497 6.17976H8.50304C8.39642 6.17976 8.29881 6.22638 8.21019 6.31962C8.12135 6.41263 8.07692 6.51508 8.07692 6.62697V24.3135C8.07692 24.4719 8.14131 24.5977 8.27008 24.691C8.39862 24.784 8.53396 24.7979 8.67612 24.7328L15 21.874Z" fill="#E1E4E9"/>
</g>
</svg>
