<svg width="20" height="20" viewBox="0 0 20 20" fill="none" xmlns="http://www.w3.org/2000/svg">
<mask id="mask0_2507_3924" style="mask-type:alpha" maskUnits="userSpaceOnUse" x="0" y="0" width="20" height="20">
<rect width="20" height="20" fill="#D9D9D9"/>
</mask>
<g mask="url(#mask0_2507_3924)">
<path d="M4.50033 15.5003H5.42658L13.6237 7.30324L12.6974 6.37699L4.50033 14.5741V15.5003ZM4.09074 16.5837C3.90255 16.5837 3.74324 16.5198 3.61283 16.3922C3.48227 16.2646 3.41699 16.1064 3.41699 15.9176V14.6851C3.41699 14.5051 3.44908 14.3335 3.51324 14.1701C3.57727 14.0068 3.67769 13.8567 3.81449 13.7199L13.7841 3.73428C13.8962 3.61984 14.0168 3.53838 14.146 3.48991C14.2751 3.4413 14.4105 3.41699 14.552 3.41699C14.6937 3.41699 14.8289 3.4397 14.9576 3.48512C15.0865 3.53053 15.2113 3.61095 15.332 3.72637L16.2664 4.65262C16.3818 4.77331 16.4635 4.89831 16.5116 5.02762C16.5596 5.15692 16.5837 5.29005 16.5837 5.42699C16.5837 5.57296 16.5584 5.71227 16.5078 5.84491C16.4571 5.97755 16.3766 6.0988 16.2664 6.20866L6.28074 16.1862C6.14394 16.323 5.99421 16.4234 5.83158 16.4874C5.66894 16.5516 5.4979 16.5837 5.31845 16.5837H4.09074ZM13.1524 6.84824L12.6974 6.37699L13.6237 7.30324L13.1524 6.84824Z" fill="#484C53"/>
</g>
</svg>
