<svg width="20" height="21" viewBox="0 0 20 21" fill="none" xmlns="http://www.w3.org/2000/svg">
<g id="link">
<mask id="mask0_2490_3618" style="mask-type:alpha" maskUnits="userSpaceOnUse" x="0" y="0" width="20" height="21">
<rect id="Bounding box" y="0.5" width="20" height="20" fill="#D9D9D9"/>
</mask>
<g mask="url(#mask0_2490_3618)">
<path id="link_2" d="M6 14.5C4.89333 14.5 3.95 14.1095 3.17 13.3285C2.39 12.5477 2 11.6033 2 10.4952C2 9.38729 2.39 8.44444 3.17 7.66667C3.95 6.88889 4.89333 6.5 6 6.5H8.25C8.4625 6.5 8.64062 6.57146 8.78438 6.71437C8.92813 6.85729 9 7.03437 9 7.24562C9 7.45687 8.92813 7.63542 8.78438 7.78125C8.64062 7.92708 8.4625 8 8.25 8H6C5.30556 8 4.71528 8.24306 4.22917 8.72917C3.74306 9.21528 3.5 9.80556 3.5 10.5C3.5 11.1944 3.74306 11.7847 4.22917 12.2708C4.71528 12.7569 5.30556 13 6 13H8.25C8.4625 13 8.64062 13.0715 8.78438 13.2144C8.92813 13.3573 9 13.5344 9 13.7456C9 13.9569 8.92813 14.1354 8.78438 14.2812C8.64062 14.4271 8.4625 14.5 8.25 14.5H6ZM7.75583 11.25C7.54361 11.25 7.36458 11.1785 7.21875 11.0356C7.07292 10.8927 7 10.7156 7 10.5044C7 10.2931 7.07181 10.1146 7.21542 9.96875C7.35903 9.82292 7.53694 9.75 7.74917 9.75H12.2442C12.4564 9.75 12.6354 9.82146 12.7812 9.96438C12.9271 10.1073 13 10.2844 13 10.4956C13 10.7069 12.9282 10.8854 12.7846 11.0312C12.641 11.1771 12.4631 11.25 12.2508 11.25H7.75583ZM11.75 14.5C11.5375 14.5 11.3594 14.4285 11.2156 14.2856C11.0719 14.1427 11 13.9656 11 13.7544C11 13.5431 11.0719 13.3646 11.2156 13.2188C11.3594 13.0729 11.5375 13 11.75 13H14C14.6944 13 15.2847 12.7569 15.7708 12.2708C16.2569 11.7847 16.5 11.1944 16.5 10.5C16.5 9.80556 16.2569 9.21528 15.7708 8.72917C15.2847 8.24306 14.6944 8 14 8H11.75C11.5375 8 11.3594 7.92854 11.2156 7.78563C11.0719 7.64271 11 7.46563 11 7.25438C11 7.04313 11.0719 6.86458 11.2156 6.71875C11.3594 6.57292 11.5375 6.5 11.75 6.5H14C15.1067 6.5 16.05 6.89049 16.83 7.67146C17.61 8.45229 18 9.39674 18 10.5048C18 11.6127 17.61 12.5556 16.83 13.3333C16.05 14.1111 15.1067 14.5 14 14.5H11.75Z" fill="#777F8B"/>
</g>
</g>
</svg>
