<svg width="41" height="40" viewBox="0 0 41 40" fill="none" xmlns="http://www.w3.org/2000/svg">
<mask id="mask0_2507_2519" style="mask-type:alpha" maskUnits="userSpaceOnUse" x="0" y="0" width="41" height="40">
<rect x="0.5" width="40" height="40" fill="#D9D9D9"/>
</mask>
<g mask="url(#mask0_2507_2519)">
<path d="M20.4998 28.3843C22.3709 28.3843 23.948 27.7427 25.2311 26.4597C26.5141 25.1766 27.1557 23.5995 27.1557 21.7284C27.1557 19.8459 26.5141 18.2659 25.2311 16.9884C23.948 15.7109 22.3709 15.0722 20.4998 15.0722C18.6173 15.0722 17.0373 15.7109 15.7598 16.9884C14.4826 18.2659 13.844 19.8459 13.844 21.7284C13.844 23.5995 14.4826 25.1766 15.7598 26.4597C17.0373 27.7427 18.6173 28.3843 20.4998 28.3843ZM20.4998 26.2901C19.1934 26.2901 18.1065 25.8536 17.239 24.9805C16.3715 24.1072 15.9378 23.0231 15.9378 21.7284C15.9378 20.422 16.3715 19.3351 17.239 18.4676C18.1065 17.6001 19.1934 17.1663 20.4998 17.1663C21.7948 17.1663 22.8789 17.6001 23.7519 18.4676C24.6253 19.3351 25.0619 20.422 25.0619 21.7284C25.0619 23.0231 24.6253 24.1072 23.7519 24.9805C22.8789 25.8536 21.7948 26.2901 20.4998 26.2901ZM7.27359 34.1663C6.55553 34.1663 5.9415 33.9113 5.4315 33.4013C4.9215 32.8913 4.6665 32.2773 4.6665 31.5593V11.9143C4.6665 11.2076 4.9215 10.5965 5.4315 10.0809C5.9415 9.56537 6.55553 9.30759 7.27359 9.30759H12.7861L15.0723 6.69717C15.3046 6.41467 15.5911 6.19995 15.9319 6.05301C16.2728 5.90634 16.6373 5.83301 17.0257 5.83301H23.974C24.3623 5.83301 24.7269 5.90634 25.0678 6.05301C25.4086 6.19995 25.6951 6.41467 25.9273 6.69717L28.2136 9.30759H33.7261C34.4328 9.30759 35.0439 9.56537 35.5594 10.0809C36.0753 10.5965 36.3332 11.2076 36.3332 11.9143V31.5593C36.3332 32.2773 36.0753 32.8913 35.5594 33.4013C35.0439 33.9113 34.4328 34.1663 33.7261 34.1663H7.27359Z" fill="#9FA9B9"/>
</g>
</svg>
