<svg width="20" height="20" viewBox="0 0 20 20" fill="none" xmlns="http://www.w3.org/2000/svg">
<mask id="mask0_2490_3745" style="mask-type:alpha" maskUnits="userSpaceOnUse" x="0" y="0" width="20" height="20">
<rect width="20" height="20" fill="#D9D9D9"/>
</mask>
<g mask="url(#mask0_2490_3745)">
<path d="M10.0326 15.5833C8.48214 15.5833 7.16401 15.0404 6.07818 13.9548C4.99221 12.8691 4.44922 11.5512 4.44922 10.0012C4.44922 8.45121 4.99221 7.13295 6.07818 6.04642C7.16401 4.95989 8.48214 4.41663 10.0326 4.41663C10.9513 4.41663 11.7935 4.62281 12.559 5.03517C13.3244 5.44767 13.9609 5.99308 14.4684 6.67142V4.95829C14.4684 4.80482 14.5199 4.67621 14.623 4.57246C14.726 4.46857 14.8537 4.41663 15.0059 4.41663C15.1582 4.41663 15.2873 4.46857 15.393 4.57246C15.4988 4.67621 15.5517 4.80482 15.5517 4.95829V8.00954C15.5517 8.1994 15.4876 8.3585 15.3592 8.48683C15.2307 8.61517 15.0716 8.67933 14.8819 8.67933H11.8307C11.6772 8.67933 11.5485 8.62788 11.4446 8.52496C11.3409 8.4219 11.289 8.2942 11.289 8.14183C11.289 7.98961 11.3409 7.86058 11.4446 7.75475C11.5485 7.64906 11.6772 7.59621 11.8307 7.59621H13.8098C13.4123 6.95829 12.8832 6.44947 12.2223 6.06975C11.5617 5.68989 10.8317 5.49996 10.0326 5.49996C8.78255 5.49996 7.72005 5.93746 6.84505 6.81246C5.97005 7.68746 5.53255 8.74996 5.53255 9.99996C5.53255 11.25 5.97005 12.3125 6.84505 13.1875C7.72005 14.0625 8.78255 14.5 10.0326 14.5C11.0982 14.5 12.0369 14.1693 12.8486 13.5079C13.6603 12.8466 14.1831 12.0154 14.4171 11.0143C14.4406 10.8627 14.5151 10.7393 14.6407 10.6441C14.7662 10.5491 14.9019 10.5075 15.0476 10.5191C15.2031 10.5309 15.3287 10.59 15.4244 10.6962C15.52 10.8026 15.563 10.9316 15.5534 11.0833C15.2873 12.3845 14.6435 13.4598 13.6221 14.3091C12.6007 15.1586 11.4042 15.5833 10.0326 15.5833Z" fill="#5F656F"/>
</g>
</svg>
