<svg width="20" height="21" viewBox="0 0 20 21" fill="none" xmlns="http://www.w3.org/2000/svg">
<mask id="mask0_2507_3916" style="mask-type:alpha" maskUnits="userSpaceOnUse" x="0" y="0" width="20" height="21">
<rect y="0.5" width="20" height="20" fill="#D9D9D9"/>
</mask>
<g mask="url(#mask0_2507_3916)">
<path d="M10.004 17.0827C9.85164 17.0827 9.72261 17.0307 9.61692 16.9268C9.51109 16.8231 9.45817 16.6945 9.45817 16.541V11.041H3.95817C3.8047 11.041 3.67609 10.9895 3.57234 10.8864C3.46845 10.7834 3.4165 10.6557 3.4165 10.5035C3.4165 10.3512 3.46845 10.2221 3.57234 10.1164C3.67609 10.0106 3.8047 9.95768 3.95817 9.95768H9.45817V4.45768C9.45817 4.30421 9.5097 4.1756 9.61275 4.07185C9.71581 3.96796 9.84345 3.91602 9.99567 3.91602C10.148 3.91602 10.2771 3.96796 10.3828 4.07185C10.4886 4.1756 10.5415 4.30421 10.5415 4.45768V9.95768H16.0415C16.195 9.95768 16.3236 10.0092 16.4273 10.1123C16.5312 10.2153 16.5832 10.343 16.5832 10.4952C16.5832 10.6475 16.5312 10.7766 16.4273 10.8823C16.3236 10.9881 16.195 11.041 16.0415 11.041H10.5415V16.541C10.5415 16.6945 10.49 16.8231 10.3869 16.9268C10.2839 17.0307 10.1562 17.0827 10.004 17.0827Z" fill="#F5F6F8"/>
</g>
</svg>
