<svg width="24" height="25" viewBox="0 0 24 25" fill="none" xmlns="http://www.w3.org/2000/svg">
<mask id="mask0_2490_3903" style="mask-type:alpha" maskUnits="userSpaceOnUse" x="0" y="0" width="24" height="25">
<rect x="24" y="24.5" width="24" height="24" transform="rotate(-180 24 24.5)" fill="#D9D9D9"/>
</mask>
<g mask="url(#mask0_2490_3903)">
<path d="M12.0008 8.93155C12.1623 8.93155 12.3113 8.95792 12.4478 9.01067C12.5843 9.06367 12.718 9.15555 12.849 9.2863L19.4314 15.869C19.5719 16.0093 19.6469 16.1814 19.6564 16.3854C19.6661 16.5892 19.5911 16.7708 19.4314 16.9303C19.2719 17.09 19.095 17.1699 18.9008 17.1699C18.7065 17.1699 18.5296 17.09 18.3701 16.9303L12.0008 10.5613L5.63138 16.9303C5.49113 17.0708 5.31901 17.1458 5.11501 17.1553C4.91126 17.165 4.72963 17.09 4.57013 16.9303C4.41038 16.7708 4.33051 16.5939 4.33051 16.3997C4.33051 16.2054 4.41038 16.0285 4.57013 15.869L11.1525 9.2863C11.2835 9.15555 11.4173 9.06367 11.5538 9.01067C11.6903 8.95792 11.8393 8.93155 12.0008 8.93155Z" fill="#5F656F"/>
</g>
</svg>
