<svg width="30" height="30" viewBox="0 0 30 30" fill="none" xmlns="http://www.w3.org/2000/svg">
<mask id="mask0_2490_5386" style="mask-type:alpha" maskUnits="userSpaceOnUse" x="0" y="0" width="30" height="30">
<rect width="30" height="30" fill="#D9D9D9"/>
</mask>
<g mask="url(#mask0_2490_5386)">
<path d="M15 24.3199L9.6 26.7583C8.74286 27.1422 7.92857 27.0688 7.15714 26.5382C6.38571 26.0076 6 25.2569 6 24.2861V6.70933C6 5.96426 6.25179 5.32644 6.75536 4.79586C7.25893 4.26529 7.86429 4 8.57143 4H21.4286C22.1357 4 22.7411 4.26529 23.2446 4.79586C23.7482 5.32644 24 5.96426 24 6.70933V24.2861C24 25.2569 23.6143 26.0076 22.8429 26.5382C22.0714 27.0688 21.2571 27.1422 20.4 26.7583L15 24.3199Z" fill="#484C53"/>
</g>
</svg>
