<svg width="20" height="20" viewBox="0 0 20 20" fill="none" xmlns="http://www.w3.org/2000/svg">
<mask id="mask0_2490_2457" style="mask-type:alpha" maskUnits="userSpaceOnUse" x="0" y="0" width="20" height="20">
<rect width="20" height="20" fill="#D9D9D9"/>
</mask>
<g mask="url(#mask0_2490_2457)">
<path d="M9.99988 11.0628L6.58322 14.4795C6.43044 14.6323 6.25683 14.7052 6.06238 14.6982C5.86794 14.6913 5.69433 14.6114 5.54155 14.4587C5.38877 14.3059 5.31238 14.1288 5.31238 13.9274C5.31238 13.726 5.38877 13.5489 5.54155 13.3962L8.93738 10.0003L5.52072 6.58366C5.36794 6.43088 5.29502 6.2538 5.30197 6.05241C5.30891 5.85102 5.38877 5.67394 5.54155 5.52116C5.69433 5.36838 5.87141 5.29199 6.0728 5.29199C6.27419 5.29199 6.45127 5.36838 6.60405 5.52116L9.99988 8.93783L13.4165 5.52116C13.5693 5.36838 13.7464 5.29199 13.9478 5.29199C14.1492 5.29199 14.3263 5.36838 14.479 5.52116C14.6318 5.67394 14.7082 5.85102 14.7082 6.05241C14.7082 6.2538 14.6318 6.43088 14.479 6.58366L11.0624 10.0003L14.479 13.417C14.6318 13.5698 14.7082 13.7434 14.7082 13.9378C14.7082 14.1323 14.6318 14.3059 14.479 14.4587C14.3263 14.6114 14.1492 14.6878 13.9478 14.6878C13.7464 14.6878 13.5693 14.6114 13.4165 14.4587L9.99988 11.0628Z" fill="#9FA9B9"/>
</g>
</svg>
