<svg width="20" height="21" viewBox="0 0 20 21" fill="none" xmlns="http://www.w3.org/2000/svg">
<mask id="mask0_1030_2095" style="mask-type:alpha" maskUnits="userSpaceOnUse" x="0" y="0" width="20" height="21">
<rect y="0.5" width="20" height="20" fill="#D9D9D9"/>
</mask>
<g mask="url(#mask0_1030_2095)">
<path d="M4.50033 16.0003H5.42658L13.6237 7.80324L12.6974 6.87699L4.50033 15.0741V16.0003ZM4.09074 17.0837C3.90255 17.0837 3.74324 17.0198 3.61283 16.8922C3.48227 16.7646 3.41699 16.6064 3.41699 16.4176V15.1851C3.41699 15.0051 3.44908 14.8335 3.51324 14.6701C3.57727 14.5068 3.67769 14.3567 3.81449 14.2199L13.7841 4.23428C13.8962 4.11984 14.0168 4.03838 14.146 3.98991C14.2751 3.9413 14.4105 3.91699 14.552 3.91699C14.6937 3.91699 14.8289 3.9397 14.9576 3.98512C15.0865 4.03053 15.2113 4.11095 15.332 4.22637L16.2664 5.15262C16.3818 5.27331 16.4635 5.39831 16.5116 5.52762C16.5596 5.65692 16.5837 5.79005 16.5837 5.92699C16.5837 6.07296 16.5584 6.21227 16.5078 6.34491C16.4571 6.47755 16.3766 6.5988 16.2664 6.70866L6.28074 16.6862C6.14394 16.823 5.99421 16.9234 5.83158 16.9874C5.66894 17.0516 5.4979 17.0837 5.31845 17.0837H4.09074ZM13.1524 7.34824L12.6974 6.87699L13.6237 7.80324L13.1524 7.34824Z" fill="#F5F6F8"/>
</g>
</svg>
