<svg width="20" height="20" viewBox="0 0 20 20" fill="none" xmlns="http://www.w3.org/2000/svg">
<mask id="mask0_1002_3316" style="mask-type:alpha" maskUnits="userSpaceOnUse" x="0" y="0" width="20" height="20">
<rect width="20" height="20" fill="#D9D9D9"/>
</mask>
<g mask="url(#mask0_1002_3316)">
<path d="M12.4791 7.52116C12.7708 7.81283 13.0069 8.16352 13.1874 8.57324C13.368 8.98296 13.4721 9.41005 13.4999 9.85449C13.4999 10.0628 13.4256 10.2399 13.277 10.3857C13.1283 10.5316 12.9526 10.6045 12.7499 10.6045C12.5358 10.6045 12.3537 10.5316 12.2039 10.3857C12.054 10.2399 11.9791 10.0628 11.9791 9.85449C12.0069 9.57671 11.9756 9.31977 11.8853 9.08366C11.7951 8.84755 11.6666 8.64269 11.4999 8.46908C11.3333 8.29546 11.1353 8.16699 10.9062 8.08366C10.677 8.00033 10.4235 7.97255 10.1458 8.00033C9.93742 8.00033 9.76033 7.92602 9.6145 7.77741C9.46867 7.62866 9.39575 7.45296 9.39575 7.25033C9.39575 7.04199 9.46867 6.86491 9.6145 6.71908C9.76033 6.57324 9.93742 6.50033 10.1458 6.50033C10.5902 6.5281 11.0138 6.6288 11.4166 6.80241C11.8194 6.97602 12.1735 7.2156 12.4791 7.52116ZM9.99992 5.50033C9.76825 5.50033 9.5427 5.50762 9.32325 5.5222C9.10381 5.53678 8.88436 5.56352 8.66492 5.60241C8.4577 5.63158 8.26034 5.59408 8.07284 5.48991C7.88534 5.38574 7.76381 5.23296 7.70825 5.03158C7.6527 4.83019 7.677 4.63921 7.78117 4.45866C7.88534 4.2781 8.03999 4.1722 8.24513 4.14095C8.53999 4.08887 8.83221 4.05241 9.12179 4.03158C9.41138 4.01074 9.70409 4.00033 9.99992 4.00033C11.861 4.00033 13.5728 4.47602 15.1353 5.42741C16.6978 6.3788 17.8828 7.68866 18.6901 9.35699C18.7439 9.46644 18.7812 9.57338 18.802 9.67783C18.8228 9.78227 18.8333 9.88977 18.8333 10.0003C18.8333 10.1109 18.8228 10.2184 18.802 10.3228C18.7812 10.4273 18.7499 10.535 18.7083 10.6462C18.4617 11.1714 18.1571 11.6639 17.7943 12.1235C17.4314 12.583 17.0346 13.0142 16.6041 13.417C16.4513 13.5559 16.2742 13.6184 16.0728 13.6045C15.8714 13.5906 15.7013 13.4992 15.5624 13.3303C15.4235 13.1613 15.3645 12.9773 15.3853 12.7782C15.4062 12.5791 15.493 12.4031 15.6458 12.2503C16.0069 11.9309 16.3288 11.5837 16.6116 11.2087C16.8945 10.8337 17.142 10.4309 17.3541 10.0003C16.6735 8.59755 15.6701 7.49685 14.3437 6.69824C13.0173 5.89963 11.5694 5.50033 9.99992 5.50033ZM9.99992 16.0003C8.18047 16.0003 6.50686 15.5177 4.97909 14.5524C3.45131 13.5871 2.24943 12.3046 1.37346 10.7047C1.30499 10.5962 1.26034 10.4828 1.2395 10.3643C1.21867 10.246 1.20825 10.1244 1.20825 9.9997C1.20825 9.87512 1.21867 9.7538 1.2395 9.63574C1.26034 9.51769 1.30547 9.4031 1.37492 9.29199C1.69436 8.66699 2.0677 8.0838 2.49492 7.54241C2.92228 7.00102 3.41006 6.50783 3.95825 6.06283L2.39575 4.50033C2.24297 4.34755 2.16659 4.17394 2.16659 3.97949C2.16659 3.78505 2.24297 3.61144 2.39575 3.45866C2.54853 3.30588 2.72561 3.22949 2.927 3.22949C3.12839 3.22949 3.30547 3.30588 3.45825 3.45866L16.5416 16.542C16.6944 16.6948 16.7708 16.8684 16.7708 17.0628C16.7708 17.2573 16.6944 17.4309 16.5416 17.5837C16.3888 17.7364 16.2117 17.8128 16.0103 17.8128C15.8089 17.8128 15.6319 17.7364 15.4791 17.5837L13.2916 15.417C12.7583 15.6114 12.2173 15.7573 11.6687 15.8545C11.1201 15.9517 10.5638 16.0003 9.99992 16.0003ZM5.02075 7.14616C4.53464 7.53505 4.08325 7.96213 3.66659 8.42741C3.24992 8.89269 2.90964 9.41699 2.64575 10.0003C3.32631 11.4031 4.32978 12.5038 5.65617 13.3024C6.98256 14.101 8.43047 14.5003 9.99992 14.5003C10.3639 14.5003 10.7188 14.476 11.0645 14.4274C11.4103 14.3788 11.7569 14.3128 12.1041 14.2295L11.1666 13.292C10.9721 13.3614 10.7777 13.4135 10.5833 13.4482C10.3888 13.483 10.1944 13.5003 9.99992 13.5003C9.0277 13.5003 8.20131 13.16 7.52075 12.4795C6.8402 11.7989 6.49992 10.9725 6.49992 10.0003C6.49992 9.80588 6.52422 9.61144 6.57284 9.41699C6.62145 9.22255 6.66659 9.0281 6.70825 8.83366L5.02075 7.14616Z" fill="#383B41"/>
</g>
</svg>
