<svg width="20" height="20" viewBox="0 0 20 20" fill="none" xmlns="http://www.w3.org/2000/svg">
<g id="location">
<mask id="mask0_953_3872" style="mask-type:alpha" maskUnits="userSpaceOnUse" x="0" y="0" width="20" height="20">
<rect id="Bounding box" width="20" height="20" fill="#D9D9D9"/>
</mask>
<g mask="url(#mask0_953_3872)">
<path id="location_on" d="M10.0061 9.88767C10.3761 9.88767 10.6909 9.75593 10.9505 9.49246C11.2102 9.22899 11.3401 8.91225 11.3401 8.54225C11.3401 8.17225 11.2083 7.85739 10.9447 7.59767C10.6812 7.33808 10.3645 7.20829 9.99445 7.20829C9.62445 7.20829 9.30966 7.34003 9.05008 7.6035C8.79036 7.86711 8.66049 8.18392 8.66049 8.55392C8.66049 8.92392 8.7923 9.23871 9.05591 9.49829C9.31938 9.75788 9.63612 9.88767 10.0061 9.88767ZM10.0003 17.5912C7.95904 15.8558 6.42813 14.2406 5.40758 12.7456C4.38716 11.2506 3.87695 9.86954 3.87695 8.60246C3.87695 6.90163 4.44688 5.44545 5.58674 4.23392C6.72674 3.02239 8.19445 2.41663 9.98987 2.41663C11.7853 2.41663 13.2565 3.02239 14.4034 4.23392C15.5502 5.44545 16.1236 6.90163 16.1236 8.60246C16.1236 9.86954 15.617 11.2475 14.6036 12.7364C13.5903 14.2252 12.0558 15.8434 10.0003 17.5912Z" fill="#C3D2FF"/>
</g>
</g>
</svg>
