<svg width="26" height="26" viewBox="0 0 26 26" fill="none" xmlns="http://www.w3.org/2000/svg">
<g id="Clip path group">
<mask id="mask0_880_164" style="mask-type:luminance" maskUnits="userSpaceOnUse" x="0" y="0" width="26" height="26">
<g id="clip0_454_1544">
<path id="Vector" d="M20.8 0H5.2C2.32812 0 0 2.32812 0 5.2V20.8C0 23.6719 2.32812 26 5.2 26H20.8C23.6719 26 26 23.6719 26 20.8V5.2C26 2.32812 23.6719 0 20.8 0Z" fill="white"/>
</g>
</mask>
<g mask="url(#mask0_880_164)">
<g id="Group">
<path id="Vector_2" d="M20.8 0H5.2C2.32812 0 0 2.32812 0 5.2V20.8C0 23.6719 2.32812 26 5.2 26H20.8C23.6719 26 26 23.6719 26 20.8V5.2C26 2.32812 23.6719 0 20.8 0Z" fill="#383B41"/>
<path id="Vector_3" d="M20.7992 22.3601C20.7992 18.0522 17.307 14.5601 12.9992 14.5601C8.6914 14.5601 5.19922 18.0522 5.19922 22.3601V27.8721C5.19922 32.1799 8.6914 35.6721 12.9992 35.6721C17.307 35.6721 20.7992 32.1799 20.7992 27.8721V22.3601Z" fill="url(#paint0_linear_880_164)"/>
<path id="Vector_4" d="M13.0494 12.7939C15.4916 12.7663 17.449 10.7641 17.4213 8.3219C17.3937 5.87971 15.3915 3.92233 12.9493 3.94996C10.5071 3.9776 8.54975 5.97979 8.57738 8.42198C8.60502 10.8642 10.6072 12.8216 13.0494 12.7939Z" fill="#E2E9FF"/>
<path id="Vector_5" d="M14.1734 6.06125C14.2423 5.87493 14.5058 5.87493 14.5748 6.06125L14.8457 6.7933C14.8673 6.85185 14.9135 6.89803 14.9721 6.91971L15.7041 7.19058C15.8904 7.25953 15.8904 7.52302 15.7041 7.59197L14.9721 7.86284C14.9135 7.88452 14.8673 7.9307 14.8457 7.9893L14.5748 8.72136C14.5058 8.90762 14.2423 8.90762 14.1734 8.72136L13.9025 7.9893C13.8808 7.9307 13.8346 7.88452 13.7761 7.86284L13.044 7.59197C12.8577 7.52302 12.8577 7.25953 13.044 7.19058L13.7761 6.91971C13.8346 6.89803 13.8808 6.85185 13.9025 6.7933L14.1734 6.06125Z" fill="#3E6FFF"/>
</g>
</g>
</g>
<defs>
<linearGradient id="paint0_linear_880_164" x1="12.9992" y1="14.5601" x2="12.9992" y2="35.6721" gradientUnits="userSpaceOnUse">
<stop offset="0.245" stop-color="#E2E9FF"/>
<stop offset="1" stop-color="#8BA8FF"/>
</linearGradient>
</defs>
</svg>
