<svg width="76" height="19" viewBox="0 0 76 19" fill="none" xmlns="http://www.w3.org/2000/svg">
<path id="Vector" d="M13.6116 12.2344V1.12716C13.6116 0.503158 14.0276 0.0871582 14.8596 0.0871582C15.6916 0.0871582 16.1076 0.503158 16.1076 1.12716V12.2344C16.1076 12.8584 15.6916 13.2744 14.8596 13.2744C14.0276 13.2744 13.6116 12.8584 13.6116 12.2344ZM3.89803 16.748V13.0664C3.89803 12.4424 4.39723 12.0264 5.22923 12.0264C6.06123 12.0264 6.56043 12.4424 6.56043 13.0664V16.0408C6.56043 16.436 6.76843 16.5816 7.20523 16.5816H15.4004C16.0452 16.5816 16.4612 16.9144 16.4612 17.7672C16.4612 18.62 16.0452 18.9528 15.4004 18.9528H6.41483C4.95883 18.9528 3.89803 18.3912 3.89803 16.748ZM8.47403 5.57836C8.47403 3.97676 7.37163 3.01996 5.91563 3.01996C4.45963 3.01996 3.33643 3.97676 3.33643 5.57836C3.33643 7.17996 4.45963 8.15756 5.91563 8.15756C7.37163 8.15756 8.47403 7.17996 8.47403 5.57836ZM0.798828 5.57836C0.798828 2.64556 2.87883 0.731958 5.91563 0.731958C8.97323 0.731958 10.97 2.64556 10.97 5.57836C10.97 8.61516 8.97323 10.4456 5.91563 10.4456C2.87883 10.4456 0.798828 8.61516 0.798828 5.57836ZM20.5989 9.59276V1.93836C20.5989 1.18956 21.1605 0.752758 22.0133 0.752758H29.3973C29.9589 0.752758 30.4789 1.21036 30.4789 1.93836C30.4789 2.70796 29.9589 3.08236 29.3973 3.08236H23.2197V8.82316C23.2197 9.50956 23.5109 9.65516 24.3221 9.65516C26.3813 9.65516 28.6901 9.44716 30.1461 9.07276C30.8949 8.88556 31.6229 9.25996 31.6229 10.2584C31.6229 10.8616 31.3733 11.2152 30.7077 11.4024C29.0021 11.8808 25.9445 12.0888 23.9061 12.0888C22.2005 12.0888 20.5989 11.8184 20.5989 9.59276ZM23.0325 16.748V14.044C23.0325 13.42 23.5317 13.004 24.3637 13.004C25.1957 13.004 25.6949 13.42 25.6949 14.044V16.0408C25.6949 16.436 25.9029 16.5816 26.3397 16.5816H34.7429C35.3877 16.5816 35.8037 16.9144 35.8037 17.7672C35.8037 18.62 35.3877 18.9528 34.7429 18.9528H25.5493C24.0933 18.9528 23.0325 18.3912 23.0325 16.748ZM33.1621 4.78796V1.12716C33.1621 0.503158 33.5781 0.0871582 34.4101 0.0871582C35.2421 0.0871582 35.6581 0.503158 35.6581 1.12716V12.4424C35.6581 13.0664 35.2421 13.4824 34.4101 13.4824C33.5781 13.4824 33.1621 13.0664 33.1621 12.4424V7.15916H31.7685C31.1237 7.15916 30.7077 6.82636 30.7077 5.97356C30.7077 5.12076 31.1237 4.78796 31.7685 4.78796H33.1621ZM28.7941 7.30476H24.5925C24.0309 7.30476 23.5317 6.99276 23.5317 6.18156C23.5317 5.28716 24.0309 4.99596 24.5925 4.99596H28.7941C29.3557 4.99596 29.8757 5.26636 29.8757 6.18156C29.8757 7.01356 29.3557 7.30476 28.7941 7.30476ZM47.0341 7.69996C47.9701 7.69996 49.1141 8.88556 49.1141 10.5704C49.1141 12.9624 47.4917 14.5848 44.6213 14.5848C41.5221 14.5848 39.7541 12.7128 39.7541 10.2792C39.7541 8.84396 40.2117 7.84556 40.9189 7.22156H39.7541C39.1925 7.22156 38.6933 6.88876 38.6933 6.07756C38.6933 5.18316 39.1925 4.82956 39.7541 4.82956H48.6773C49.2389 4.82956 49.7589 5.16236 49.7589 6.07756C49.7589 6.90956 49.2389 7.22156 48.6773 7.22156H45.4741C43.7061 7.28396 42.2501 8.40716 42.2501 10.0504C42.2501 11.5272 43.2485 12.2968 44.6213 12.2968C45.9109 12.2968 46.7013 11.5272 46.7013 10.612C46.7013 9.57196 45.8693 9.46796 45.8693 8.78156C45.8693 8.19916 46.2645 7.69996 47.0341 7.69996ZM51.2565 16.6232V1.12716C51.2565 0.503158 51.6725 0.0871582 52.5045 0.0871582C53.3365 0.0871582 53.7525 0.503158 53.7525 1.12716V6.61836H55.3957C56.0405 6.61836 56.4565 6.95116 56.4565 7.80396C56.4565 8.65676 56.0405 8.98956 55.3957 8.98956H53.7525V16.6232C53.7525 17.2472 53.3365 17.6632 52.5045 17.6632C51.6725 17.6632 51.2565 17.2472 51.2565 16.6232ZM41.6677 2.99916C41.1477 2.85356 40.8981 2.43756 40.8981 1.87596C40.8981 1.04396 41.5013 0.503158 42.2501 0.648758C43.6645 0.919158 45.0373 1.06476 46.3893 1.06476C46.9301 1.06476 47.4085 1.35596 47.4085 2.14636C47.4085 3.14476 46.8053 3.45676 46.2645 3.45676C44.7669 3.45676 42.8741 3.31116 41.6677 2.99916ZM70.3909 16.6232V1.12716C70.3909 0.503158 70.8069 0.0871582 71.6389 0.0871582C72.4709 0.0871582 72.8869 0.503158 72.8869 1.12716V3.97676H74.5301C75.1749 3.97676 75.591 4.30956 75.591 5.16236C75.591 6.01516 75.1749 6.34796 74.5301 6.34796H72.8869V9.38476H74.5301C75.1749 9.38476 75.591 9.71756 75.591 10.5704C75.591 11.4232 75.1749 11.756 74.5301 11.756H72.8869V16.6232C72.8869 17.2472 72.4709 17.6632 71.6389 17.6632C70.8069 17.6632 70.3909 17.2472 70.3909 16.6232ZM59.5125 13.5864C59.1589 13.8776 59.0133 14.0024 58.5349 14.0024C57.8485 14.0024 57.1205 13.3992 57.1205 12.6504C57.1205 12.3592 57.2037 12.0472 57.5157 11.756C60.0741 9.50956 61.7173 6.16076 62.1541 2.39596C62.2373 1.66796 62.6949 1.35596 63.3189 1.35596C64.3173 1.35596 64.7749 1.81356 64.7541 2.70796C64.4005 7.51276 61.9045 11.548 59.5125 13.5864ZM63.9221 9.25996C63.8181 9.11436 63.6933 8.86476 63.6933 8.63596C63.6933 7.90796 64.2133 7.22156 65.0245 7.22156C65.3365 7.22156 65.6693 7.30476 65.8981 7.53356C66.9381 8.49036 68.2901 10.3 68.9349 11.4856C69.1637 11.9016 69.2053 12.1512 69.2053 12.4632C69.2053 13.3992 68.3317 13.7736 67.687 13.7736C67.2085 13.7736 66.9589 13.6072 66.7093 13.2328C65.7733 11.8184 65.0869 10.82 63.9221 9.25996Z" fill="#383B41"/>
</svg>
